{"title":"Hick.2011.HDRip.AC3-5.1.XviD-AXED","uid":7265604,"size":1451966381,"categoryP":"video","categoryS":"movies","magnet":"?xt=urn:btih:2feda846d454cc4b2867bb896b301b4373543fa7&amp;dn=Hick.2011.HDRip.AC3-5.1.XviD-AXED&amp;tr=udp%3A%2F%2Ftracker.openbittorrent.com%3A80&amp;tr=udp%3A%2F%2Fopen.demonii.com%3A1337&amp;tr=udp%3A%2F%2Ftracker.coppersurfer.tk%3A6969&amp;tr=udp%3A%2F%2Fexodus.desync.com%3A6969","seeders":1,"leechers":0,"uploader":"maximersk","files":4,"time":1336874394,"description":"Hick.2011.HDRip.AC3-5.1.XviD-AXED\n\n\n\n\n\nIMDB: &lt;a href=&quot;\nhttp://www.imdb.com/title/tt1205558/&quot; rel=&quot;nofollow&quot; target=&quot;_NEW&quot;&gt;\nhttp://www.imdb.com/title/tt1205558/&lt;/a&gt;\n\nPLOT INFO:\nA Nebraska teen gets more than she bargained for when she sets out for the bright lights of Las Vegas.\n\n\nMEDIAINFO:\nGeneral\nComplete name : Hick.2011.HDRiP.AC3-5.1.XviD-AXED.avi\nFormat : AVI\nFormat/Info : Audio Video Interleave\nFile size : 1.34 GiB\nDuration : 1h 38mn\nOverall bit rate : 1 935 Kbps\n\nVideo\nID : 0\nFormat : MPEG-4 Visual\nFormat profile : Advanced Simple@L5\nFormat settings, BVOP : 2\nFormat settings, QPel : No\nFormat settings, GMC : No warppoints\nFormat settings, Matrix : Default (H.263)\nMuxing mode : Packed bitstream\nCodec ID : XVID\nCodec ID/Hint : XviD\nDuration : 1h 38mn\nBit rate : 1 544 Kbps\nWidth : 720 pixels\nHeight : 304 pixels\nDisplay aspect ratio : 2.35:1\nFrame rate : 23.976 fps\nColor space : YUV\nChroma subsampling : 4:2:0\nBit depth : 8 bits\nScan type : Progressive\nCompression mode : Lossy\nBits/(Pixel*Frame) : 0.294\nStream size : 1.07 GiB (80%)\nWriting library : XviD 1.1.2 (UTC 2006-11-01)\n\nAudio\nID : 1\nFormat : AC-3\nFormat/Info : Audio Coding 3\nMode extension : CM (complete main)\nCodec ID : 2000\nDuration : 1h 38mn\nBit rate mode : Constant\nBit rate : 384 Kbps\nChannel(s) : 6 channels\nChannel positions : Front: L C R, Side: L R, LFE\nSampling rate : 48.0 KHz\nBit depth : 16 bits\nCompression mode : Lossy\nStream size : 272 MiB (20%)\nAlignment : Aligned on interleaves\nInterleave, duration : 64 ms (1.53 video frames)\nInterleave, preload duration : 192 ms\nTitle : hick","torrent":{"xt":"urn:btih:2feda846d454cc4b2867bb896b301b4373543fa7","amp;dn":"Hick.2011.HDRip.AC3-5.1.XviD-AXED","amp;tr":["udp%3A%2F%2Ftracker.openbittorrent.com%3A80","udp%3A%2F%2Fopen.demonii.com%3A1337","udp%3A%2F%2Ftracker.coppersurfer.tk%3A6969","udp%3A%2F%2Fexodus.desync.com%3A6969"],"infoHash":"2feda846d454cc4b2867bb896b301b4373543fa7","infoHashBuffer":{"type":"Buffer","data":[47,237,168,70,212,84,204,75,40,103,187,137,107,48,27,67,115,84,63,167]},"announce":[],"urlList":[]}}